<svg xmlns="http://www.w3.org/2000/svg" xmlns:xlink="http://www.w3.org/1999/xlink" id="Layer_1" x="0px" y="0px" viewBox="0 0 234.6 230" style="enable-background:new 0 0 234.6 230;" xml:space="preserve">
<style type="text/css">
	.st0{fill:#727272;}
	.st1{fill:#1B1B1B;}
	.st2{fill:#7C7C7C;}
	.st3{fill:#858585;}
	.st4{fill:#535353;}
	.st5{fill:#252525;}
	.st6{fill:#444444;}
	.st7{fill:#3B3B3B;}
	.st8{fill:#5C5C5C;}
	.st9{fill:#696969;}
	.st10{fill:#121212;}
	.st11{fill:#4C4C4C;}
	.st12{fill:#333333;}
	.st13{fill:#2D2D2D;}
	.st14{fill:#8D8D8D;}
	.st15{fill:#636363;}
	.st16{fill:#0C0C0C;}
	.st17{fill:#060606;}
</style>
<g>
	<path d="M234.6,223.1c-0.1,0.1-0.1,0.1-0.2,0.2c-1.9,4.9-5.6,7.4-9.9,6.6c-4.6-0.8-7.2-4.4-7.2-9.9c0-33.6,0-67.3,0-100.9   c0-2.3-0.4-3.2-2.8-2.9c-1.2,0.2-2.4,0-3.6-0.2c-5-0.6-8.5-5-7.8-10c1.7-12.7,3.4-25.4,5.1-38.1c2.1-15.3,4.1-30.5,6.1-45.8   c0.6-4.8,1.2-9.5,1.9-14.3c0.7-4.8,4.6-8,9.2-7.8c4.5,0.1,8,3.4,8.6,8.2c0.3,3.2,0,6.4,0.1,9.7c0,4.3,0,8.5,0,12.8   c0,4.6,0,9.2,0,13.7c0,4.7,0,9.4,0,14.2c0,3.7,0,7.3,0,11c0,3.2,0,6.4,0,9.7c0,3.8,0,7.6,0,11.4c0,4.3,0,8.5,0,12.8   c0,3.5,0,7,0,10.6c0,4.1,0,8.2,0,12.4c0,4.1,0,8.2,0,12.4c0,3.5,0,7,0,10.6c0,3.5,0,7,0,10.6c0,4.3,0,8.5,0,12.8   c0,4.7,0,9.4,0,14.2c0,3.7,0,7.3,0,11c0,3.2,0,6.4,0,9.6c0.1,2.9-0.3,5.9,0.2,8.8C234.6,218.5,234.6,220.8,234.6,223.1z"></path>
	<path class="st0" d="M234.2,58.6c0-4.7,0-9.5,0-14.2c0.1-0.2,0.3-0.2,0.4,0c0,4.7,0,9.5,0,14.2C234.5,58.8,234.4,58.8,234.2,58.6z"></path>
	<path class="st1" d="M234.2,186.9c0-4.7,0-9.5,0-14.2c0.1-0.2,0.3-0.2,0.4,0c0,4.7,0,9.5,0,14.2   C234.5,187.1,234.3,187.1,234.2,186.9z"></path>
	<path class="st2" d="M234.6,44.4c-0.1,0-0.3,0-0.4,0c0-4.6,0-9.2,0-13.7c0.1-0.2,0.3-0.2,0.4,0C234.6,35.3,234.6,39.8,234.6,44.4z"></path>
	<path class="st3" d="M234.6,30.7c-0.1,0-0.3,0-0.4,0c0-4.3,0-8.6,0-12.8c0.1-0.2,0.3-0.2,0.4,0C234.6,22.1,234.6,26.4,234.6,30.7z"></path>
	<path class="st4" d="M234.2,103.5c0-4.3,0-8.6,0-12.8c0.1-0.2,0.3-0.2,0.4,0c0,4.3,0,8.6,0,12.8   C234.5,103.7,234.3,103.7,234.2,103.5z"></path>
	<path class="st5" d="M234.6,172.7c-0.1,0-0.3,0-0.4,0c0-4.3,0-8.6,0-12.8c0.1-0.2,0.3-0.2,0.4,0   C234.6,164.1,234.6,168.4,234.6,172.7z"></path>
	<path class="st6" d="M234.2,126.4c0-4.1,0-8.2,0-12.4c0.1-0.2,0.3-0.2,0.4,0c0,4.1,0,8.2,0,12.4   C234.5,126.6,234.3,126.6,234.2,126.4z"></path>
	<path class="st7" d="M234.2,126.4c0.1,0,0.3,0,0.4,0c0,4.1,0,8.2,0,12.4c-0.1,0.2-0.3,0.2-0.4,0   C234.2,134.7,234.2,130.5,234.2,126.4z"></path>
	<path class="st8" d="M234.6,90.7c-0.1,0-0.3,0-0.4,0c0-3.8,0-7.6,0-11.4c0.1-0.2,0.3-0.2,0.4,0C234.6,83.1,234.6,86.9,234.6,90.7z"></path>
	<path class="st9" d="M234.2,58.6c0.1,0,0.3,0,0.4,0c0,3.7,0,7.3,0,11c-0.1,0.2-0.3,0.2-0.4,0C234.2,66,234.2,62.3,234.2,58.6z"></path>
	<path class="st10" d="M234.2,186.9c0.1,0,0.3,0,0.4,0c0,3.7,0,7.3,0,11c-0.2,0.2-0.3,0.2-0.5,0   C234.2,194.2,234.2,190.6,234.2,186.9z"></path>
	<path class="st11" d="M234.6,114.1c-0.1,0-0.3,0-0.4,0c0-3.5,0-7,0-10.5c0.1,0,0.3,0,0.4,0C234.6,107,234.6,110.5,234.6,114.1z"></path>
	<path class="st12" d="M234.2,138.8c0.1,0,0.3,0,0.4,0c0,3.5,0,7,0,10.5c-0.1,0.2-0.3,0.2-0.4,0   C234.2,145.8,234.2,142.3,234.2,138.8z"></path>
	<path class="st13" d="M234.2,149.3c0.1,0,0.3,0,0.4,0c0,3.5,0,7,0,10.5c-0.1,0-0.3,0-0.4,0C234.2,156.4,234.2,152.8,234.2,149.3z"></path>
	<path class="st14" d="M234.6,17.9l-0.2,0c0,0-0.2,0-0.2,0c0-3.2,0-6.4,0-9.7c0.1-0.1,0.3-0.1,0.4,0.1   C234.6,11.4,234.6,14.7,234.6,17.9z"></path>
	<path class="st15" d="M234.2,69.6c0.1,0,0.3,0,0.4,0c0,3.2,0,6.4,0,9.6c-0.1,0-0.3,0-0.4,0C234.2,76,234.2,72.8,234.2,69.6z"></path>
	<path class="st16" d="M234.2,197.9c0.2,0,0.3,0,0.5,0c0,3.2,0,6.4,0,9.6c-0.2,0.2-0.3,0.2-0.5,0   C234.2,204.3,234.2,201.1,234.2,197.9z"></path>
	<path class="st17" d="M234.2,207.5c0.2,0,0.3,0,0.5,0c0,2.9,0,5.8,0,8.7C233.6,213.4,234.4,210.4,234.2,207.5z"></path>
	<path d="M193.9,117.1c2.8,4.5,6.2,7.7,10.9,9.3c0.9,0.3,1,1,1,1.8c0,13.4,0,26.7,0,40.1c0,0.8-0.2,1.5-0.7,2.1   c-15.9,22.6-37.2,37.1-64.7,41.2c-37.7,5.6-68.4-7.2-92.4-36.6c-1-1.2-1.4-2.4-1.4-3.9c0-24.7,0-49.3,0-74c0-1.4,0.3-2.4,1.5-3.2   C58.8,86.1,64,75.4,64.1,62.3c0.1-6.6,0-13.3,0-19.9c0-1.1,0.2-1.9,1.2-2.7c12.6-9.8,26.8-16.5,42.6-18.9   c35.3-5.5,65.1,5,89.4,31.2c0.6,0.7,1.1,1.3,0.9,2.4c-2,14.7-4,29.5-6,44.2c0,0.3-0.2,0.6-0.4,1.4c-5.3-19.6-16.3-34.3-33.5-44   c-17.3-9.7-35.8-11.6-54.6-5.5C70.4,61.4,52,93.9,56.6,125.7c5.1,35.5,35.7,59.8,69.2,59.4C159.9,184.7,192.6,157.4,193.9,117.1z"></path>
	<path d="M67.6,116.3c0.2-32,25.8-57.1,57.1-57.3c31.3-0.2,57,25.3,57.4,57c0.3,31.4-25.5,57.3-57.1,57.5   C93.5,173.5,67.9,147.9,67.6,116.3z"></path>
	<path d="M17.6,155.3c0-21.6,0-43.2,0-64.8c0-1.3-0.2-2.1-1.6-2.8C5.8,83.1,0.3,75,0.1,63.9c-0.3-17.6-0.1-35.1-0.1-52.7   c0-3.4,2.6-6.1,5.8-6.2c3.3-0.1,5.9,2.6,6,6.5c0.1,8.9,0,17.7,0,26.6c0,5.3,0,5.3,5.3,5.3c3.2,0,3.2,0,3.2-3.1c0-9.3,0-18.6,0-27.9   c0-1.4,0-2.7,0.7-4c1.3-2.5,4-3.8,6.5-3.2c2.7,0.7,4.6,3.1,4.6,6.1c0,9.9,0.1,19.8,0,29.8c0,1.9,0.4,2.6,2.4,2.4   c1.4-0.2,2.9-0.1,4.3,0c1.7,0.2,2-0.5,2-2.1c-0.1-9.8,0-19.5,0-29.3c0-1.7,0.2-3.3,1.3-4.7c1.5-1.8,3.8-2.6,5.9-2.1   c2.3,0.6,4.1,2.7,4.4,5c0,0.2,0,0.5,0,0.7c0,18.1,0.2,36.2-0.2,54.3C52,75.6,46.3,83.1,36.9,87.5c-1.7,0.8-2.1,1.6-2.1,3.4   c0.1,43,0,86.1,0,129.1c0,5.2-2.2,8.4-6.4,9.6c-4.7,1.3-9.7-1.8-10.5-6.6c-0.2-1.2-0.3-2.4-0.3-3.6   C17.6,198.1,17.6,176.7,17.6,155.3z"></path>
</g>
</svg>