<svg xmlns="http://www.w3.org/2000/svg" width="22" height="22" viewBox="0 0 22 22" fill="none"><path d="M5.97801 0C2.68174 0 0 2.68174 0 5.97801V15.5428C0 18.8391 2.68174 21.5208 5.97801 21.5208H15.5428C18.8391 21.5208 21.5208 18.8391 21.5208 15.5428V5.97801C21.5208 2.68174 18.8391 0 15.5428 0H5.97801ZM5.97801 2.39121H15.5428C17.5204 2.39121 19.1296 4.00049 19.1296 5.97801V15.5428C19.1296 17.5204 17.5204 19.1296 15.5428 19.1296H5.97801C4.00049 19.1296 2.39121 17.5204 2.39121 15.5428V5.97801C2.39121 4.00049 4.00049 2.39121 5.97801 2.39121ZM16.7384 3.58681C16.4213 3.58681 16.1172 3.71277 15.893 3.93699C15.6688 4.16121 15.5428 4.46532 15.5428 4.78241C15.5428 5.0995 15.6688 5.40361 15.893 5.62783C16.1172 5.85205 16.4213 5.97801 16.7384 5.97801C17.0555 5.97801 17.3596 5.85205 17.5839 5.62783C17.8081 5.40361 17.934 5.0995 17.934 4.78241C17.934 4.46532 17.8081 4.16121 17.5839 3.93699C17.3596 3.71277 17.0555 3.58681 16.7384 3.58681ZM10.7604 4.78241C7.46415 4.78241 4.78241 7.46415 4.78241 10.7604C4.78241 14.0567 7.46415 16.7384 10.7604 16.7384C14.0567 16.7384 16.7384 14.0567 16.7384 10.7604C16.7384 7.46415 14.0567 4.78241 10.7604 4.78241ZM10.7604 7.17362C12.7379 7.17362 14.3472 8.7829 14.3472 10.7604C14.3472 12.7379 12.7379 14.3472 10.7604 14.3472C8.7829 14.3472 7.17362 12.7379 7.17362 10.7604C7.17362 8.7829 8.7829 7.17362 10.7604 7.17362Z" fill="white"></path></svg>