<svg xmlns="http://www.w3.org/2000/svg" xmlns:xlink="http://www.w3.org/1999/xlink" id="Layer_1" x="0px" y="0px" viewBox="0 0 151.4 230" style="enable-background:new 0 0 151.4 230;" xml:space="preserve">
<g>
	<path d="M96.8,0c2.4,0.8,4.8,1.5,6.8,3.1c1.6,1.3,2.7,2.7,2,4.8c-0.7,2.1-2.4,2.7-4.4,2.7c-11.7,0-23.5,0-35.2,0   c-11.5,0-23,0-34.6,0c-1.5,0-3-0.1-4.1-1.4c-1.4-1.7-1.2-3.8,0.5-5.4c2.1-2,4.8-2.8,7.4-3.7C55.8,0,76.3,0,96.8,0z"></path>
	<path d="M62.2,18.2c16.4,0,32.8,0,49.2,0c8.5,0,12.9,4.3,13.2,12.9c1.1,31.3-2.1,62.1-10.2,92.4c-0.8,3.1-1.9,3.9-5,3.9   c-28.7,0-57.3,0-86,0c-3.1,0-4.3-0.9-5.1-3.9c-5.3-19.8-8.4-39.9-9.5-60.4c0-0.9-0.3-1.8-0.2-2.7C9.3,51.7,5.8,44,2,36.5   c-1.3-2.5-2.2-5.1-1.9-7.9c0.6-5.6,4.9-10,10.5-10.2c6-0.2,12-0.1,18-0.1C39.7,18.2,50.9,18.2,62.2,18.2z"></path>
	<path d="M66.5,152.3c-15.1,0-30.2,0-45.4,0c-4.4,0-5.8-1.8-4.7-6c0.7-2.6,1.5-5.2,2.1-7.8c0.6-2.3,2-3.4,4.3-3.4   c29,0,57.9,0,86.9,0c2.6,0,3.8,0.9,4.5,3.5c0.7,2.6,1.4,5.2,2.1,7.8c1.1,4-0.4,5.9-4.5,5.9C96.7,152.3,81.6,152.3,66.5,152.3z"></path>
	<path d="M151.4,64.2c-0.2,5.1,0.4,10.2-1.1,15.1c-2.7,8.8-8.3,14.8-16.8,18.2c-1.8,0.7-3.5,1.2-4.6-1c-1.1-2.1-0.2-5,1.7-6.1   c1-0.6,2.2-1,3.2-1.6c6.1-3.5,9.6-8.7,9.8-15.8c0.2-6.2,0.2-12.4,0.1-18.6c-0.1-4.8-2.8-8-7.6-9.2c-2.8-0.7-4-2.3-3.4-4.8   c0.5-2.3,2.2-3.2,5-2.7c6.8,1.2,12.7,7.5,13.5,14.4C151.6,56.2,151.3,60.2,151.4,64.2z"></path>
	<path d="M121.1,213.2c-0.6-16-1.3-32-1.9-48c-0.2-4.1-1.3-5.2-5.5-5.2c-23.4,0-46.8,0-70.2,0c-8.2,0-16.5,0-24.7,0   c-3.8,0-5,1.1-5.2,4.8c-0.2,4-0.4,8.1-0.5,12.1c-0.5,12.3-1.1,24.7-1.5,37c-0.3,7.6,4.2,13.5,11.6,15.6c0.4,0.1,0.8,0.1,0.9,0.5   c28.2,0,56.3,0,84.5,0c0.1-0.1,0.2-0.3,0.3-0.3C117.2,227.4,121.4,221.9,121.1,213.2z M66.5,209.8c-10.6,0-19.2-8.7-19.1-19.3   c0.1-10.5,8.8-19,19.3-18.9c10.6,0.1,19,8.6,19,19.2C85.6,201.4,77.1,209.9,66.5,209.8z"></path>
	<path d="M78,190.8c0,6.4-5.2,11.4-11.6,11.4c-6.2-0.1-11.4-5.2-11.4-11.5c0-6.3,5.2-11.5,11.6-11.5C73,179.2,78.1,184.4,78,190.8z"></path>
</g>
</svg>