<?xml version="1.0" encoding="utf-8"?>
<!-- Generator: Adobe Illustrator 23.0.2, SVG Export Plug-In . SVG Version: 6.00 Build 0)  -->
<svg version="1.1"
	 id="svg2" sodipodi:docname="Logo.ai" xmlns:cc="http://creativecommons.org/ns#" xmlns:dc="http://purl.org/dc/elements/1.1/" xmlns:inkscape="http://www.inkscape.org/namespaces/inkscape" xmlns:rdf="http://www.w3.org/1999/02/22-rdf-syntax-ns#" xmlns:sodipodi="http://sodipodi.sourceforge.net/DTD/sodipodi-0.dtd" xmlns:svg="http://www.w3.org/2000/svg"
	 xmlns="http://www.w3.org/2000/svg" xmlns:xlink="http://www.w3.org/1999/xlink" x="0px" y="0px" viewBox="0 0 1000.1 1024.3"
	 style="enable-background:new 0 0 1000.1 1024.3;" xml:space="preserve">
<style type="text/css">
	.st0{fill:#FFFFFF;}
	.st1{fill-rule:evenodd;clip-rule:evenodd;fill:#FFFFFF;}
</style>
<sodipodi:namedview  bordercolor="#666666" borderopacity="1" gridtolerance="10" guidetolerance="10" id="namedview4" inkscape:pageopacity="0" inkscape:pageshadow="2" inkscape:window-height="480" inkscape:window-width="640" objecttolerance="10" pagecolor="#ffffff">
	</sodipodi:namedview>
<g>
	<g>
		<g id="g38_2_" transform="translate(940.9414,858.0127)">
			<g>
				<path id="path40_18_" class="st0" d="M-558.5-115.1c17.8-29.5,33.7-54.8,48.7-80.8c43.1-74.8,36.7-145.8-17.4-212.7
					c-10.6-13.1-21.3-26.2-31.7-39c26.1,18.5,51.5,38.6,78.9,55.5c48.1,29.6,87.2,21.1,122.3-23.8c8.2-10.5,16.7-20.6,27.5-31
					c-64.7,116.3-42.8,229.8,7.5,343.6c-1.1-1.2-2.4-2.4-3.2-3.8c-1.3-2-2-4.4-3.3-6.4c-15.8-25.5-29-53.3-48.2-76
					c-25.8-30.6-56.3-33.8-89-10.4c-25.9,18.5-48.3,42-72,63.5C-544.5-130.9-549.8-124.4-558.5-115.1"/>
			</g>
		</g>
		<g id="g42_2_" transform="translate(1053.001,1114.6685)">
			<g>
				<path id="path44_18_" class="st0" d="M-516.6-724.2c0,35.1-16.2,63.6-36.2,63.6s-36.2-28.5-36.2-63.6s16.2-63.6,36.2-63.6
					C-532.8-787.9-516.6-759.4-516.6-724.2"/>
			</g>
		</g>
	</g>
	<g>
		<g id="g30_2_" transform="translate(784.9414,875.0127)">
			<g>
				<path id="path32_18_" class="st0" d="M-635.9-155.5c17.8-29.5,33.7-54.8,48.7-80.8c43.1-74.8,36.7-145.8-17.4-212.7
					c-10.6-13.1-21.3-26.2-31.7-39c26.1,18.5,51.5,38.6,78.9,55.5c48.1,29.6,87.2,21.1,122.3-23.8c8.2-10.5,16.7-20.6,27.5-31
					c-64.7,116.3-42.8,229.8,7.5,343.6c-1.1-1.2-2.4-2.4-3.2-3.8c-1.3-2-2-4.4-3.3-6.4c-15.8-25.5-29-53.3-48.2-76
					c-25.8-30.6-56.3-33.8-89-10.4c-25.9,18.5-48.3,42-72,63.5C-622-171.2-627.2-164.7-635.9-155.5"/>
			</g>
		</g>
		<g id="g34_2_" transform="translate(897.001,1150.6685)">
			<g>
				<path id="path36_18_" class="st0" d="M-594.1-809.7c0,35.1-16.2,63.6-36.2,63.6s-36.2-28.5-36.2-63.6s16.2-63.6,36.2-63.6
					S-594.1-844.8-594.1-809.7"/>
			</g>
		</g>
	</g>
	<g>
		<g id="g46_2_" transform="translate(1124.9414,874.0127)">
			<g>
				<path id="path48_18_" class="st0" d="M-509-153.1c17.8-29.5,33.7-54.8,48.7-80.8c43.1-74.8,36.7-145.8-17.4-212.7
					c-10.6-13.1-21.3-26.2-31.7-39c26.1,18.5,51.5,38.6,78.9,55.5c48.1,29.6,87.2,21.1,122.3-23.8c8.2-10.5,16.7-20.6,27.5-31
					c-64.7,116.3-42.8,229.8,7.5,343.6c-1.1-1.2-2.4-2.4-3.2-3.8c-1.3-2-2-4.4-3.3-6.4c-15.8-25.5-29-53.3-48.2-76
					c-25.8-30.6-56.3-33.8-89-10.4c-25.9,18.5-48.3,42-72,63.5C-495.1-168.9-500.4-162.4-509-153.1"/>
			</g>
		</g>
		<g id="g50_2_" transform="translate(1243.001,1135.4951)">
			<g>
				<path id="path52_18_" class="st0" d="M-465-773.7c0,34.2-15.8,62-35.2,62c-19.5,0-35.2-27.8-35.2-62s15.8-62,35.2-62
					C-480.7-835.7-465-807.9-465-773.7"/>
			</g>
		</g>
	</g>
	<g>
		<g id="g22_3_" transform="translate(1126.0029,791.9297)">
			<path id="path24_3_" class="st1" d="M-503.8,41.7c16.7-24.6,31.5-47.9,48-69.9c12.9-17.2,41.2-25.4,60.3-17.1
				c6.1,2.6,11.7,12.6,12.6,19.9c3.9,32.4,7.7,65,8.2,97.6c0.7,43.6-0.9,87.2-3.2,130.7c-1.4,25.4-3.9,26.2-28.5,26.2
				c-40.6,0-38.8,0.2-33.4-40.6c5.8-44.3,8.1-89.1,11-133.7c0.6-9-2.9-18.4-4.5-27.5c-1.9-0.6-3.8-1.2-5.6-1.7
				c-4.7,6.2-11.1,11.8-13.8,18.8c-10.4,27.7-19.7,55.8-29.1,83.9c-1.9,5.7-2.5,11.9-4,17.7c-2.4,9.5-5,21.6-17.4,18.6
				c-7.6-1.8-16.7-10-19.6-17.4c-12-31.6-21.6-64.2-33-96.1c-3.3-9.1-9.8-17-14.8-25.5c-2.1,0.3-4.3,0.6-6.4,0.8
				c-2,9.4-5.4,18.8-5.9,28.3c-2.7,51.8,3.3,102.8,16,153.1c1.2,4.7,2.2,9.4,3.2,14.2c0.2,1.1-0.4,2.3-1.4,6.9
				c-15.2,0-31.2,0.8-47-0.6c-3.9-0.4-9.2-7.5-10.4-12.4c-2.7-11.1-4.6-22.7-4.4-34.1c1.1-65.3,2.3-130.7,5.1-196
				c0.5-10.7,7.8-29.3,13.8-30.1c19.1-2.7,42.5-10.5,57.5,9.4c14.1,18.7,25.6,39.5,38,59.6C-509.2,30-506.7,35.9-503.8,41.7"/>
		</g>
		<path class="st1" d="M196.7,845.4c-11.6-37.2-30.5-69.7-62-94.2c-14.4-11.2-26.8-12.2-42.3-0.7C8.9,812.6-10.8,919.2,5,1001.6
			c1.3,6.7,8,17,13,17.6c18.6,2.1,37.7,0.8,58.5,0.8c-6-12.4-10.9-21.5-15-30.9c-16.7-38.8-4.3-62.1,37-69.8
			c4.8-0.9,9.6-1.7,14.4-2.2c46-4.5,57.2,9.2,42.1,53c-5.5,15.8-13,31-21.5,50.8c17.9,0,31.8-1.4,45.3,0.3
			c19.7,2.4,26.2-7.9,28.1-24.6C213.1,945.7,212.3,894.9,196.7,845.4z M138.6,876.6c0,0-91.1,23.6-77.9-9.3c0,0,18.7-37.3,30.2-51.6
			c0,0,20.9-30.2,35.7,0C126.6,815.7,170.5,872.8,138.6,876.6z"/>
		<path class="st1" d="M439.8,848.2c-11.6-37.2-30.5-69.7-62-94.2c-14.4-11.2-26.8-12.2-42.3-0.7C252,815.4,232.3,922,248.1,1004.4
			c1.3,6.7,8,17,13,17.6c18.6,2.1,37.7,0.8,58.5,0.8c-6-12.4-10.9-21.5-15-30.9c-16.7-38.8-4.3-62.1,37-69.8
			c4.8-0.9,9.6-1.7,14.4-2.2c46-4.5,57.2,9.2,42.1,53c-5.5,15.8-13,31-21.5,50.8c17.9,0,31.8-1.4,45.3,0.3
			c19.7,2.4,26.2-7.9,28.1-24.6C456.2,948.4,455.3,897.7,439.8,848.2z M381.7,879.4c0,0-91.1,23.6-77.9-9.3c0,0,18.7-37.3,30.2-51.6
			c0,0,20.9-30.2,35.7,0C369.6,818.5,413.5,875.6,381.7,879.4z"/>
		<path class="st1" d="M986.3,846.8c-11.6-37.2-30.5-69.7-62-94.2c-14.4-11.2-26.8-12.2-42.3-0.7C798.5,814,778.8,920.6,794.6,1003
			c1.3,6.7,8,17,13,17.6c18.6,2.1,37.7,0.8,58.5,0.8c-6-12.4-10.9-21.5-15-30.9c-16.7-38.8-4.3-62.1,37-69.8
			c4.8-0.9,9.6-1.7,14.4-2.2c46-4.5,57.2,9.2,42.1,53c-5.5,15.8-13,31-21.5,50.8c17.9,0,31.8-1.4,45.3,0.3
			c19.7,2.4,26.2-7.9,28.1-24.6C1002.7,947,1001.9,896.3,986.3,846.8z M928.2,878c0,0-91.1,23.6-77.9-9.3c0,0,18.7-37.3,30.2-51.6
			c0,0,20.9-30.2,35.7,0C916.2,817.1,960.1,874.2,928.2,878z"/>
	</g>
	<path class="st0" d="M490.2,0L71.7,273.3h856.9L490.2,0z M515.3,120.5c2.1-3.5,5.9-4.3,9.6-5s6.2-2.4,7.2-6.2
		c1.7-6.9,7.2-9,13.3-10c0.8-0.1,2,0.6,2.5,1.3c0.3,0.3-0.4,2.1-1,2.3c-6,1.7-7.2,7.4-9.8,11.8c-2.2,3.8-4.7,6.6-9.2,7.6
		c-1.9,0.4-3.6,2.1-5.4,3.1c-1.3,0.8-2.8,1.4-4.6,2.3c-1.3-1-3.1-1.7-3.5-2.9C514,123.6,514.6,121.7,515.3,120.5z M490.2,84.2
		c-2.9-6-2.6-12.1,2.5-17.3c2.8-2.8,5.1-5.9,8-8.5c1.4-1.3,4.5-2.7,5.3-2.1c2.1,1.5,0.6,3.9-0.7,5.6c-1.8,2.3-3.9,4.4-5.8,6.7
		c-4.5,5.4-4.7,9.3-1.7,15.6c2.8,5.8,3.8,11.5-1.1,17.1c-2.2,2.5-3.7,5.5-2.9,9.4c1,4.9-0.2,7-3.2,7.3c-3.3,0.4-6.6-2.9-6.9-6.8
		c0-0.4,0-0.8,0-1.3c-0.2-4.4,2.4-7.8,4.9-10.8C492.5,94.3,492.9,89.8,490.2,84.2z M437.4,94.1c0.8,1.4,1.8,2.4,2.2,3.7
		c1.4,4.6,4.2,8,8.2,10.5c6,3.8,8.6,10.3,12.3,15.9c0.4,0.7,0,2.4-0.6,3.1c-0.6,0.7-2.1,1.1-3,1c-3.3-0.5-5.5-2.7-5.7-5.9
		c-0.4-5.3-3.2-8.4-7.4-11.3c-5.2-3.6-6.4-9.7-6.9-15.7C436.4,95.1,436.8,94.9,437.4,94.1z M422.4,142.7c-3.8-1.8-7.6-3.6-11.1-5.9
		c-1.2-0.7-1.5-2.8-2.2-4.3c0.4-0.3,0.8-0.6,1.3-0.8c0.8,0.5,1.9,0.9,2.5,1.6c2.3,2.8,5.5,3.6,8.8,3.7c4.8,0.3,8.9,2.1,12.6,4.9
		c3.2,2.4,6.5,3.4,10.4,3.1c2.6-0.2,5.3-0.1,7.9,0.4c2.5,0.5,3.8,2.5,3.2,5c-0.7,2.6-2.9,2.8-5.2,2.4c-7.6-1.2-15-2.5-21.3-7.5
		C427.3,143.9,424.5,143.8,422.4,142.7z M465.6,178.2c-0.9,1.4-2.3,2.5-3.4,3.7c-0.7,0.7-1.2,1.8-2,2c-4.6,1.3-8.1,4-10.8,7.9
		c-0.4,0.6-1.2,1.1-1.8,1.2c-1.4,0.1-2.7-0.2-4.1-0.4c0.6-1.1,1.1-2.3,1.9-3.3c1.2-1.4,2.6-2.7,4-4c0.9-0.9,1.6-2.2,2.7-2.6
		c3.7-1.2,5.3-3.9,6-7.4c0.5-2.5,2-4.2,6-4l0,0c0.6,0.6,2.2,1.6,2.7,3.1C467.3,175.4,466.3,177.1,465.6,178.2z M491.4,190.7
		c-2.1,3.6-1.5,7-0.6,10.7c1,4.2,1,8.5-2.3,12c-3.4,3.6-4,7.4-1.4,11.9c1,1.6,2.6,4,0.2,5.6c-0.4,0.3-3.3-2.1-4.2-3.7
		c-1.6-2.5-2.5-5.5-3.7-8c0.8-2.2,1.1-4.2,2.1-5.5c4.3-5.4,3.3-11,1.6-16.9c-0.7-2.4-0.9-5.2-0.6-7.7c0.4-2.8,3.7-4.3,6.4-3.5
		C491.6,186.1,492.8,188.2,491.4,190.7z M475.4,175c-5.9-4.2-10.8-9.4-13-16.8c-3.4-11.2,6.7-24.1,15.3-25.8
		c3.6-0.7,7.2-1.4,10.9-2.1c10.2-0.1,17.2,5.4,22.1,13.2c1.6,2.6,0.8,7.3-0.1,10.8c-3.8,16.1-22.9,18.9-33.2,8.4
		c-4.3-4.4-4.9-11.7-1.4-16.7c3.4-4.9,16.3-6.7,20.8-2.9c2.9,2.5,1.7,5.7,0.9,8.6c-0.9,3.3-3.7,5.4-6.3,5.4c-0.8,0-1.8,0.1-2.5-0.3
		c-1.4-0.8-2.6-1.8-3.9-2.8c1.3-0.8,2.7-1.5,4-2.3c1-0.6,1.9-1.3,2.8-1.9c-0.8-0.7-1.5-1.8-2.4-2.1c-3.1-1-6.3,0.2-7.7,2.8
		c-1.8,3.1-0.9,7.1,1.8,9.9c5.2,5.2,16,4.6,19.1-4.6c0.4-1.2,0.8-2.4,1.2-3.6c2.2-7.5-2.5-14.3-10.3-14.7c-4.2-0.2-8.5-0.6-12.6,0.2
		c-11.4,2.4-18,17.8-8.9,28.3c4.8,5.6,10.8,9.1,18.5,9.3c6,0.2,11.7-1.3,16.2-4.7c5-3.6,6.8-9.8,7.5-15.9c0.6-5.7-0.8-11-2.9-16.1
		c-0.6-1.4-1.6-2.8-2.7-3.9c-5.9-5.5-12.5-9.1-20.9-7.4c-2,0.4-4,0.5-6,0.5c-3.7,0-6.8,1.3-9.3,4.1c-0.3,0.4-0.7,0.8-1.2,1.1
		c-1.7,1.2-3.9,2.3-5.4,0.4c-1.5-1.9-0.1-3.6,1.4-5.2c7-7.6,29.5-10,37.9-4.4c4.4,2.9,8.5,5.7,11.9,9.8c4,5,4.2,11,4.8,16.8
		c1,10.4-2.5,19.1-11,24.9C499.2,183,486.8,183.2,475.4,175z M536.1,197.5c-0.7,1.6-2,1.8-2.8,0.2c-1.6-3.3-4.6-4.3-7.7-4.9
		c-3.6-0.8-6.4-2.4-8.1-5.9c-0.7-1.5-2.4-2.6-3.6-3.9c-1.5-1.5-2.8-3-1.3-5.3s3.7-1.8,5.3-0.6c2.1,1.6,4.2,3.5,5.7,5.7
		c1.9,2.7,3.3,5.3,7.2,5.7c3.4,0.4,6,3.3,6.1,6C536.7,195.3,536.5,196.5,536.1,197.5z M565.3,150.5c-0.6-0.2-1.4,0.3-2,0.6
		c-3.3,1.5-6.4,3.5-9.8,4.5c-2.4,0.7-5.2,0.2-7.8-0.2c-5.2-0.8-10.4-1.9-15.7-0.4c-1.3,0.4-3.2-0.3-4.4-1.2c-1.8-1.3-2.3-3-0.2-5
		c4.1-3.8,11-5.2,16.2-2.9c2.3,1,4.7,1.9,7,2.8c4.4,1.6,7.7-0.8,11.3-3c3.3-2,7.2-3.1,11-4.4c0.4-0.1,1.3,0.5,1.6,1
		c0.8,1,1.3,2.1,2.2,3.6C572.2,148.7,570,152,565.3,150.5z"/>
</g>
</svg>
