<svg xmlns="http://www.w3.org/2000/svg" xmlns:xlink="http://www.w3.org/1999/xlink" id="Layer_1" x="0px" y="0px" viewBox="0 0 176.6 230" style="enable-background:new 0 0 176.6 230;" xml:space="preserve">
<path d="M170.2,79.7C156.4,73,142.7,66,129,59.2c-9.9-5-19.8-9.9-29.7-14.9c-2.5-1.3-2.6-1.8-1.2-4.3c0.9-1.4,2.1-2.5,3.3-3.6  c8.7-7.3,10.3-19.4,3.7-28.5C101.7,3.2,97,0.3,91,0c-1.8,0-3.6,0-5.4,0c-1.4,0.5-3,0.2-4.4,0.7C73.4,3,67,12.2,67.5,20.3  c0.2,3.9,3.3,7,7,7.2c3.6,0.2,6.9-2.5,7.6-6.3c0.2-0.8,0.1-1.6,0.4-2.4c0.8-2.7,3.3-4.7,6-4.6c2.6,0,5,1.9,5.7,4.6  c0.7,2.7-0.3,4.8-2.4,6.5c-4.6,3.8-8.1,8.4-9.5,14.3c-0.5,2-1.7,3.2-3.5,4.1c-5.4,2.6-10.7,5.3-16.1,8C43.9,61,25.2,70.5,6.4,79.7  C1.9,81.9-0.2,85.1,0,90.2c0.3,7.7,0.1,15.4,0.1,23.1c0,5.7,2.9,8.6,8.5,8.6c5.3,0,10.6,0.1,15.9,0c1.8,0,2.7,0.6,2.5,2.5  c-0.1,0.7,0,1.3,0,2c0,31.8,0,63.6,0,95.4c0,4.9,1.3,6.8,5.6,8.2c37.1,0,74.3,0,111.4,0c4.1-1.3,5.5-3.3,5.6-7.8c0-0.8,0-1.6,0-2.5  c0-31.4,0-62.9,0-94.3c0-3.6,0-3.6,3.6-3.6c4.9,0,9.7,0,14.6,0c5.8,0,8.7-2.9,8.7-8.7c0-7.7-0.2-15.4,0.1-23.1  C176.8,85,174.7,81.9,170.2,79.7z M107.6,79.1c-2.8,9.9-11.9,16.4-21.5,15.2c-10.5-1.3-17.9-9.7-18-20.4c0-1,0-1.9,0-2.9  c-1.4-4.9,1.2-7.2,5.4-8.9c4.5-1.8,8.9-4.3,13.2-6.5c1.1-0.6,1.9-0.7,3.1-0.1c5.7,2.9,11.4,5.8,17.2,8.6c1,0.5,1.6,1,1.5,2.3  C108.4,70.6,108.8,74.9,107.6,79.1z"></path>
</svg>