<svg xmlns="http://www.w3.org/2000/svg" width="261" height="207" viewBox="0 0 261 207" fill="none"><path d="M93.159 157.217C99.8854 146.07 105.894 136.509 111.562 126.684C127.849 98.4184 125.43 71.5885 104.987 46.3079C100.981 41.3576 96.9378 36.4073 93.0078 31.5703C102.871 38.5612 112.469 46.1567 122.823 52.543C140.999 63.7284 155.775 60.5164 169.039 43.5493C172.137 39.5815 175.349 35.7649 179.43 31.8348C154.981 75.783 163.257 118.673 182.265 161.677C181.849 161.223 181.358 160.77 181.055 160.241C180.564 159.485 180.3 158.578 179.808 157.822C173.838 148.186 168.85 137.681 161.594 129.103C151.845 117.539 140.319 116.33 127.962 125.173C118.175 132.164 109.71 141.044 100.754 149.169C98.4494 151.247 96.4466 153.703 93.159 157.217Z" fill="#FFB750"></path><path d="M151.3 24.0336C151.3 37.2974 145.179 48.0671 137.621 48.0671C130.063 48.0671 123.941 37.2974 123.941 24.0336C123.941 10.7697 130.063 0 137.621 0C145.216 0 151.3 10.7697 151.3 24.0336Z" fill="#FFB750"></path><path d="M36.2815 198.819C40.4372 186.481 44.2353 175.847 47.6442 165.028C57.4312 133.909 49.2665 108.237 23.8384 87.9771C18.8568 84.0105 13.8383 80.052 8.95508 76.1797C20.0966 80.8716 31.1106 86.2111 42.601 90.2065C62.7665 97.1954 76.4973 90.8633 85.7769 71.4288C87.9439 66.8847 90.2543 62.4636 93.3888 57.7438C79.0248 105.94 96.3822 146.025 124.242 183.898C123.738 183.546 123.16 183.209 122.751 182.758C122.108 182.126 121.653 181.298 121.01 180.667C113.096 172.55 105.954 163.373 97.0149 156.567C84.995 147.386 73.4808 148.699 63.3292 160.005C55.2859 168.947 48.9425 179.449 41.9561 189.318C40.1264 191.891 38.7023 194.722 36.2815 198.819Z" fill="#009A9D"></path><path d="M62.1111 46.6189C64.9802 59.5687 61.333 71.4076 53.9542 73.0425C46.5754 74.6773 38.269 65.4867 35.3999 52.5369C32.5308 39.5872 36.178 27.7482 43.5568 26.1133C50.9274 24.4416 59.2339 33.6322 62.1111 46.6189Z" fill="#009A9D"></path><path d="M138.847 182.943C147.862 173.55 155.828 165.547 163.52 157.211C185.63 133.224 189.178 106.52 174.802 77.3589C171.984 71.6482 169.13 65.9292 166.361 60.3457C174.443 69.3365 182.134 78.8587 190.828 87.3679C206.095 102.281 221.215 102.4 237.889 88.7696C241.785 85.5813 245.759 82.5654 250.605 79.6304C217.08 117.118 215.71 160.777 224.784 206.91C224.478 206.376 224.099 205.826 223.921 205.243C223.608 204.398 223.55 203.455 223.237 202.61C219.534 191.895 216.981 180.55 211.792 170.585C204.828 157.159 193.851 153.442 179.851 159.347C168.765 164.012 158.553 170.811 148.028 176.764C145.276 178.312 142.782 180.268 138.847 182.943Z" fill="#E14426"></path><path d="M228.453 64.087C225.607 76.6936 217.47 85.6266 210.319 84.0126C203.131 82.3903 199.657 70.8367 202.502 58.2301C205.347 45.6235 213.484 36.6905 220.635 38.3044C227.823 39.9267 231.306 51.4435 228.453 64.087Z" fill="#E14426"></path></svg>