<svg xmlns="http://www.w3.org/2000/svg" xmlns:xlink="http://www.w3.org/1999/xlink" id="Layer_1" x="0px" y="0px" viewBox="0 0 88.2 230" style="enable-background:new 0 0 88.2 230;" xml:space="preserve">
<g>
	<path d="M2.6,223.5c-4.2-8.6-2.4-17.4-1-26.2c0.3-2,0.9-4.1,1.6-6c3.1-8.5,3.9-17.4,3.6-26.4c-0.1-1.8,0.5-2.2,2.2-2.2   c23.5,0.1,47,0.1,70.4,0c1.6,0,2.1,0.4,2,2c-0.5,9.6,0.8,18.9,4,28.1c2.7,7.6,2.9,15.6,2.6,23.6c-0.1,2.7-1.4,5.1-2.6,7.4   c-1.1,1.1-2.2,2.2-3.3,3.3c-2.8,2.3-6,2.9-9.5,2.9c-19-0.1-38-0.1-56.9,0c-3.5,0-6.7-0.6-9.5-2.9C5,225.9,3.8,224.7,2.6,223.5z"></path>
	<path d="M63.3,0.6C62.8,1.2,63,1.8,63,2.5c0,6.5,0,12.9,0,19.4c0,1.2-0.3,1.5-1.5,1.5c-11.6-0.1-23.2-0.1-34.8,0   c-1.2,0-1.5-0.3-1.5-1.5c0.1-6.5,0-12.9,0-19.4c0-0.6,0.3-1.3-0.2-1.8c0.1-0.1,0.2-0.2,0.3-0.3C26.2,0.1,27.1,0,28,0   c10.8,0,21.5,0,32.3,0c0.9,0,1.8,0.1,2.7,0.3C63.1,0.4,63.2,0.5,63.3,0.6z"></path>
	<path d="M81.5,101.1c-4.5,0-9-0.1-13.4-0.1c-19.8,0-39.6,0-59.3,0c-1.4,0-1.9-0.2-2-1.8C6.7,90.3,5,81.5,2.2,73   C-1.4,62.4-0.2,52.4,6,43.1c2-3,4.4-5.5,7.3-7.6c0.6-0.5,1.3-0.5,2-0.5c19.2,0,38.4,0,57.6,0c1,0,1.7,0.3,2.5,0.9   c11,8.7,15.4,22.6,11.1,35.9C83.4,81.3,81.5,91,81.5,101.1z"></path>
	<path d="M81.4,112.6c0,0.7,0.1,1.1,0.1,1.4c0,11.9,0,23.9,0,35.8c0,1.1-0.4,1.3-1.3,1.3c-24,0-47.9,0-71.9,0   c-1.1,0-1.4-0.2-1.4-1.4c0-11.9,0-23.8,0-35.6c0-1.2,0.4-1.3,1.4-1.3c23.9,0,47.8,0,71.7,0C80.4,112.8,80.8,112.7,81.4,112.6z"></path>
</g>
</svg>