<svg xmlns="http://www.w3.org/2000/svg" xmlns:xlink="http://www.w3.org/1999/xlink" id="Layer_1" x="0px" y="0px" viewBox="0 0 163.4 230" style="enable-background:new 0 0 163.4 230;" xml:space="preserve">
<g>
	<path d="M148.6,177.8c-3.6-2.1-7.1-4.2-10.7-6.1c-1.7-0.9-2.3-1.8-1.6-3.9c3.2-9.8,3.9-19.9,2.2-30.1c-0.8-4.8-0.8-4.9,4-6.1   c5.4-1.5,9.9-4.2,12.9-9c4.3-7.1,4.7-14.4,0.5-21.7c-3.9-6.7-9.8-10-17.6-10.1c-3-0.1-5.8,0.5-8.6,1.4c-4.1,1.2-8.3,1.9-12.3,3.5   c-0.2,0.1-0.2,0.1-0.1,0.2c0.2,0.2-0.3,0.1-0.1-0.1c3.4-2.2,6.1-5.2,8.6-8.4c5.9-7.6,9.7-16,9.9-25.7c0.1-2.2,0.7-3.3,2.8-4.2   c13.1-5.7,20.4-19,17.8-33C152.7,6,135-4.3,116.2,1.7c-5.3,1.7-9.9,4.9-13.2,9.6c-1.3,1.8-2.5,2-4.5,1.3c-11.2-3.4-22.4-3.4-33.5,0   c-2,0.6-3.2,0.4-4.6-1.3c-5.1-6.4-11.6-10.4-20-11c-7.1-0.6-13.8,0.4-20,4.3C10.8,10.8,5.1,23,7,34.3c1.9,11.2,8.2,19,18.6,23.5   c1.6,0.7,2.2,1.6,2.1,3.2c0,1.4-0.1,2.8,0.2,4.2c2.1,12.6,8.3,22.8,18.4,30.6c-0.3-0.4-0.7-0.5-1.1-0.7c-5.2-1.5-10.5-3.1-15.8-4.2   c-2.5-0.5-5.1-0.4-7.6,0c-8,1.3-14.7,7.6-16.5,15.2c-1.9,8.4,1.1,16.7,7.8,21.7c3,2.2,6.5,3.3,10,4.3c2.7,0.7,2.7,0.8,2.2,3.3   c-2.2,10.9-1.7,21.7,1.8,32.3c0.7,2,0.1,3-1.6,3.9c-3.6,1.9-7,4-10.5,6c-5.7,3.2-10,7.7-12.7,13.7c-5,11.1-1.8,24.9,7.6,32.5   c4.2,3.5,8.9,5.6,14.4,6c2.4,0,4.8,0,7.2,0c3.7-0.3,7.1-1.3,10.3-3.1c10.3-5.8,20.5-11.7,30.7-17.5c0.9-0.5,1.7-1.1,2.9-1   c4.2,0.3,8.3,0.3,12.5,0c1-0.1,1.7,0.3,2.5,0.7c7.6,4.3,15.1,8.7,22.8,12.9c5.8,3.2,11.2,7.5,18.2,7.9c2.4,0,4.8,0,7.2,0   c1.9-0.5,4-0.3,5.9-0.9c10.8-3.6,18.8-14.2,18.9-25.6C163.5,192.1,158.4,183.5,148.6,177.8z M103.8,51.6c3.1,0,5.7,2.5,5.7,5.7   c0,3.1-2.5,5.7-5.7,5.6c-3.1,0-5.5-2.4-5.6-5.5C98.2,54.2,100.7,51.6,103.8,51.6z M93.3,67c4.9,4,7.3,9.1,5.8,15.4   c-1.6,6.6-6.2,10.3-12.5,12.1c-1.6,0.5-3.2,0.6-4.9,0.6c-5.1,0-9.5-1.6-13.2-5.2c-6.2-6-6.3-15.3-0.2-21.4   C74.8,61.9,86.2,61.2,93.3,67z M59.4,51.2c3.1-0.1,5.7,2.5,5.8,5.6c0,3.2-2.4,5.7-5.6,5.7c-3.1,0-5.7-2.5-5.7-5.7   C53.9,53.8,56.3,51.3,59.4,51.2z M46.9,22.4C40.1,27.5,35,34,31.6,41.8c-0.6,1.4-1.1,1.4-2.2,0.7c-4.8-3-7.1-7.3-7.3-12.4   c0.2-6.4,3.8-11.6,9.3-13.8c5.4-2.2,11.6-0.8,15.7,3.2C48.3,20.7,48.3,21.3,46.9,22.4z M108.6,160.9c-7.9,8.2-16.1,16.2-24.3,24.2   c-1.8,1.8-3.5,1.8-5.3,0c-8.1-8-16.3-16-24.3-24.2c-5.6-5.9-6.8-12.9-3.7-20.5c2.9-7,9.7-11.4,17.3-11.4c4.6,0,8.7,1.4,12.1,4.4   c0.9,0.8,1.4,0.8,2.4,0c7.9-6.5,19.1-5.8,25.9,1.5C115.7,142.3,115.8,153.4,108.6,160.9z M116.3,19.6c2.7-2.6,6.5-4.3,10.3-4.3   c6.5,0,12.5,4.6,14.2,11c1.7,6.3-1.2,13.1-6.8,16.4c-1.2,0.7-1.6,0.5-2.2-0.8c-3.4-7.9-8.5-14.4-15.3-19.5   C114.9,21.2,115.2,20.6,116.3,19.6z"></path>
	<path d="M81.6,65.8c4.4,0,8,3.1,8.1,7c0.1,3.9-3.7,7.4-8,7.3c-4.3,0-7.9-3.3-8-7.2C73.7,69,77.2,65.8,81.6,65.8z"></path>
</g>
</svg>