<svg xmlns="http://www.w3.org/2000/svg" width="29" height="23" viewBox="0 0 29 23" fill="none"><path d="M28.1915 4.49186C27.9235 3.01283 26.6468 1.93574 25.1651 1.59948C22.9479 1.12923 18.8444 0.792969 14.4047 0.792969C9.96759 0.792969 5.79845 1.12923 3.57859 1.59948C2.09956 1.93574 0.820178 2.94453 0.552218 4.49186C0.281632 6.17318 0.0136719 8.52702 0.0136719 11.5534C0.0136719 14.5798 0.281632 16.9336 0.617895 18.6149C0.888481 20.094 2.16523 21.171 3.64426 21.5073C5.99811 21.9776 10.0333 22.3138 14.473 22.3138C18.9127 22.3138 22.9479 21.9776 25.3017 21.5073C26.7807 21.171 28.0575 20.1623 28.3281 18.6149C28.596 16.9336 28.9323 14.5115 29.0006 11.5534C28.864 8.52702 28.5277 6.17318 28.1915 4.49186ZM10.7741 16.2611V6.84571L18.9784 11.5534L10.7741 16.2611Z" fill="white"></path></svg>